<svg width="199" height="227" viewBox="0 0 199 227" fill="none" xmlns="http://www.w3.org/2000/svg">
<path d="M169.781 39.8909L171.664 37.9755C173.162 36.4518 174.004 34.3852 174.004 32.2303C174.004 30.0755 173.162 28.0089 171.664 26.4852C170.166 24.9615 168.134 24.1055 166.015 24.1055C163.896 24.1055 161.864 24.9615 160.366 26.4852L158.483 28.4006L141.169 46.0048C139.996 47.1991 139.409 47.7963 138.905 48.4533C138.311 49.2291 137.801 50.0681 137.384 50.9555C137.032 51.7076 136.77 52.5093 136.246 54.1086L134.023 60.8879M169.781 39.8909C169.781 39.8909 165.78 39.6512 162.249 36.0601C158.718 32.471 158.485 28.4006 158.485 28.4006M169.781 39.8909L152.469 57.4951C151.297 58.6873 150.709 59.2845 150.063 59.7969C149.3 60.4015 148.476 60.9204 147.603 61.3445C146.863 61.702 146.077 61.9685 144.503 62.5016L137.837 64.7621M137.837 64.7621L136.207 65.3158C135.827 65.4453 135.42 65.4645 135.03 65.3713C134.64 65.278 134.283 65.076 134 64.7879C133.716 64.4999 133.518 64.1371 133.426 63.7405C133.334 63.3439 133.353 62.9292 133.481 62.5429L134.025 60.8858L137.837 64.7621Z" stroke="#588157" stroke-width="2"/>
<path d="M90.2941 143.345L75.2451 128.296M90.2941 135.82L105.343 120.771M90.2941 203.541V105.722M73.9208 165.918C70.6286 165.726 67.4186 164.814 64.5167 163.247C61.6147 161.681 59.0913 159.497 57.1238 156.85C55.1564 154.204 53.7928 151.158 53.1289 147.928C52.465 144.698 52.5169 141.361 53.281 138.153C50.5532 135.881 48.3996 132.998 46.995 129.738C45.5905 126.478 44.9746 122.932 45.1975 119.39C45.4203 115.847 46.4756 112.406 48.2776 109.348C50.0796 106.289 52.5775 103.699 55.5685 101.787C52.9452 97.1268 52.0617 91.6865 53.0753 86.4356C54.089 81.1847 56.9339 76.4642 61.1033 73.1151C65.2726 69.7661 70.4956 68.0061 75.8415 68.1487C81.1875 68.2912 86.3092 70.3272 90.2941 73.8937C94.2799 70.3328 99.3999 68.3017 104.743 68.1619C110.086 68.0221 115.305 69.7826 119.472 73.1302C123.638 76.4777 126.482 81.1951 127.496 86.4427C128.511 91.6903 127.631 97.1276 125.012 101.787C128.004 103.698 130.502 106.288 132.305 109.346C134.108 112.405 135.164 115.845 135.387 119.388C135.611 122.931 134.996 126.476 133.592 129.737C132.188 132.997 130.035 135.881 127.307 138.153C128.097 141.47 128.125 144.922 127.39 148.252C126.654 151.581 125.174 154.7 123.061 157.376C120.947 160.051 118.255 162.213 115.187 163.699C112.118 165.185 108.753 165.957 105.343 165.956H75.2451L73.9208 165.918Z" stroke="#588157" stroke-width="5" stroke-linecap="round" stroke-linejoin="round"/>
</svg>
