<svg width="201" height="201" viewBox="0 0 201 201" fill="none" xmlns="http://www.w3.org/2000/svg">
<path d="M170.206 22.9427L171.898 21.2509C173.244 19.9051 174 18.0797 174 16.1764C174 14.2731 173.244 12.4478 171.898 11.1019C170.552 9.75608 168.727 9 166.824 9C164.921 9 163.095 9.75608 161.75 11.1019L160.058 12.7937L144.506 28.3429C143.453 29.3978 142.926 29.9252 142.473 30.5056C141.939 31.1908 141.481 31.9319 141.106 32.7157C140.79 33.38 140.555 34.0881 140.084 35.5007L138.088 41.4886M170.206 22.9427C170.206 22.9427 166.613 22.731 163.441 19.5591C160.27 16.389 160.06 12.7937 160.06 12.7937M170.206 22.9427L154.656 38.4919C153.603 39.5449 153.076 40.0724 152.495 40.525C151.81 41.059 151.069 41.5173 150.285 41.8919C149.621 42.2077 148.915 42.4431 147.501 42.9139L141.513 44.9105M141.513 44.9105L140.049 45.3996C139.708 45.514 139.342 45.531 138.992 45.4486C138.641 45.3663 138.321 45.1878 138.067 44.9334C137.812 44.6789 137.634 44.3586 137.551 44.0083C137.469 43.658 137.486 43.2916 137.6 42.9504L138.089 41.4868L141.513 44.9105Z" stroke="#588157" stroke-width="2"/>
<path d="M82.752 118.71L64.4989 100.512M82.752 109.611L101.005 91.4136M82.752 191.5V73.216M62.8927 146.006C58.8996 145.773 55.0062 144.671 51.4864 142.776C47.9666 140.882 44.9059 138.241 42.5196 135.041C40.1333 131.841 38.4793 128.158 37.674 124.252C36.8688 120.346 36.9318 116.311 37.8586 112.432C34.55 109.685 31.9378 106.199 30.2343 102.256C28.5307 98.3141 27.7837 94.0268 28.054 89.7427C28.3243 85.4586 29.6042 81.2984 31.7899 77.6C33.9755 73.9017 37.0053 70.7693 40.6331 68.4573C37.4513 62.8221 36.3797 56.2436 37.6091 49.8941C38.8385 43.5446 42.2892 37.8365 47.3462 33.7868C52.4033 29.737 58.7382 27.6088 65.2224 27.7812C71.7065 27.9536 77.9187 30.4155 82.752 34.7282C87.5864 30.4223 93.7965 27.9663 100.277 27.7972C106.757 27.6281 113.088 29.757 118.142 33.8049C123.195 37.8528 126.644 43.5572 127.875 49.9027C129.106 56.2482 128.038 62.8231 124.862 68.4573C128.49 70.7685 131.521 73.9003 133.707 77.5983C135.894 81.2963 137.174 85.4562 137.446 89.7404C137.717 94.0245 136.971 98.312 135.268 102.255C133.565 106.197 130.954 109.684 127.645 112.432C128.603 116.442 128.638 120.617 127.746 124.643C126.854 128.669 125.059 132.441 122.495 135.676C119.932 138.911 116.666 141.525 112.944 143.322C109.222 145.119 105.14 146.053 101.005 146.052H64.4989L62.8927 146.006Z" stroke="#588157" stroke-width="5" stroke-linecap="round" stroke-linejoin="round"/>
</svg>
