<svg width="258" height="258" viewBox="0 0 258 258" fill="none" xmlns="http://www.w3.org/2000/svg">
<path d="M135.772 199.681L170.828 188.911C173.88 187.975 177.149 188.026 180.17 189.058C183.191 190.09 185.809 192.05 187.65 194.658C190.466 198.551 189.321 204.138 185.215 206.504L127.857 239.606C126.064 240.644 124.078 241.305 122.02 241.551C119.963 241.796 117.877 241.62 115.89 241.033L67.0801 226.547M67.0801 180.6H85.3598C87.6037 180.6 89.8171 181.104 91.8245 182.081L107.41 189.622C109.417 190.591 111.631 191.095 113.882 191.095H121.835C129.529 191.095 135.772 197.132 135.772 204.581C135.772 204.886 135.566 205.146 135.268 205.23L115.874 210.595C112.394 211.557 108.684 211.22 105.433 209.649L88.7715 201.589" stroke="white" stroke-width="1.5" stroke-linecap="round" stroke-linejoin="round"/>
<path d="M176.479 43.6187C172.347 33.7537 165.39 25.3297 156.484 19.4052C147.577 13.4808 137.118 10.3199 126.42 10.3199C115.723 10.3199 105.264 13.4808 96.3572 19.4052C87.4508 25.3297 80.4942 33.7537 76.3616 43.6187C67.4368 47.697 59.8719 54.2532 54.5674 62.5069C49.2628 70.7607 46.442 80.3644 46.4406 90.1751C46.3692 117.448 69.292 141.008 96.528 141.722C104.905 141.924 113.205 140.079 120.708 136.346V164.568C120.708 166.083 121.309 167.536 122.381 168.607C123.452 169.678 124.905 170.28 126.42 170.28C127.936 170.28 129.389 169.678 130.46 168.607C131.531 167.536 132.133 166.083 132.133 164.568V136.346C139.236 139.871 147.055 141.711 154.985 141.722H156.284C183.549 141.008 206.479 117.448 206.4 90.1751C206.399 80.3644 203.578 70.7607 198.273 62.5069C192.969 54.2532 185.404 47.697 176.479 43.6187ZM156.02 130.299C147.501 130.521 139.133 128.02 132.133 123.159V93.8876L163.254 78.3379C163.925 78.0022 164.524 77.5376 165.016 76.9707C165.508 76.4037 165.883 75.7454 166.121 75.0333C166.358 74.3213 166.453 73.5695 166.4 72.8209C166.346 72.0722 166.146 71.3414 165.81 70.6701C165.475 69.9988 165.01 69.4002 164.443 68.9084C163.876 68.4167 163.217 68.0414 162.505 67.8041C161.793 67.5667 161.041 67.472 160.292 67.5252C159.543 67.5784 158.812 67.7785 158.141 68.1142L132.133 81.0794V61.76C132.133 60.2452 131.531 58.7925 130.46 57.7213C129.389 56.6502 127.936 56.0485 126.42 56.0485C124.905 56.0485 123.452 56.6502 122.381 57.7213C121.309 58.7925 120.708 60.2452 120.708 61.76V98.2142L94.6999 85.206C93.3438 84.5282 91.7739 84.4166 90.3356 84.896C88.8973 85.3753 87.7084 86.4062 87.0304 87.762C86.3523 89.1177 86.2408 90.6872 86.7202 92.1252C87.1996 93.5632 88.2308 94.7519 89.5868 95.4298L120.708 110.98V123.117C113.71 127.981 105.341 130.482 96.8207 130.256C75.6475 129.749 57.8092 111.394 57.8663 90.2037C57.8609 82.2345 60.2475 74.447 64.7173 67.8487C69.1872 61.2504 75.5347 56.1449 82.9385 53.1927C83.6813 52.8945 84.353 52.4436 84.9103 51.8692C85.4676 51.2949 85.8979 50.6098 86.1734 49.8586C89.1868 41.6081 94.6641 34.4832 101.863 29.4491C109.062 24.415 117.635 21.715 126.42 21.715C135.206 21.715 143.779 24.415 150.978 29.4491C158.177 34.4832 163.654 41.6081 166.667 49.8586C166.943 50.6098 167.373 51.2949 167.931 51.8692C168.488 52.4436 169.16 52.8945 169.902 53.1927C177.305 56.1465 183.651 61.2524 188.121 67.8503C192.591 74.4483 194.978 82.2349 194.975 90.2037C195.032 111.394 177.193 129.749 156.02 130.299Z" fill="white"/>
</svg>
