<svg width="175" height="175" viewBox="0 0 175 175" fill="none" xmlns="http://www.w3.org/2000/svg">
<path d="M142.188 94.7918V72.9168C142.188 48.8543 142.188 36.8231 134.714 29.3491C127.24 21.8752 115.208 21.8752 91.1459 21.8752H69.2709C45.2084 21.8752 33.1771 21.8752 25.7031 29.3491C18.2292 36.8231 18.2292 48.8543 18.2292 72.9168V109.375C18.2292 133.438 18.2292 145.469 25.7031 152.943C33.1771 160.417 45.2084 160.417 69.2709 160.417H80.2084M116.667 14.5835V29.1668M80.2084 14.5835V29.1668M43.75 14.5835V29.1668M98.4375 145.833C98.4375 145.833 105.729 145.833 113.021 160.417C113.021 160.417 136.186 123.958 156.771 116.667M51.0417 109.375H80.2084M51.0417 72.9168H109.375" stroke="#588157" stroke-width="9" stroke-linecap="round" stroke-linejoin="round"/>
</svg>
