<svg width="640" height="462" viewBox="0 0 640 462" fill="none" xmlns="http://www.w3.org/2000/svg">
<path d="M104.879 81.909C98.7835 84.3458 91.89 84.2864 84.1537 81.909C74.1316 78.8293 72.6582 64.852 63.4282 64.852C57.7773 64.852 49.2044 66.5888 49.2044 73.2348C49.2044 79.6125 47.5636 86.0854 47.5636 92.0909C47.5636 96.9367 42.6415 100.12 42.6415 105.208C42.6415 116.89 49.3579 117.513 53.675 114.247C60.9899 108.713 76.732 107.668 76.732 107.668C76.732 107.668 83.5398 107.032 89.2126 114.247C92.7742 118.777 96.1915 126.554 89.0303 130.643C83.7107 133.681 81.6228 132.181 77.0966 136.453C72.0866 141.181 73.8152 148.919 73.8152 155.218C73.8152 163.765 67.0856 169.631 57.3324 169.631C50.0391 168.937 43.4177 173.248 36.6069 175.723C29.538 178.292 24.0744 178.605 17.3015 180.596C12.5457 181.994 7.00016 184.77 3.68995 189.125C0.104607 193.841 3.05751 201.119 4.90902 204.963C7.06452 209.439 15.0164 208.264 17.3015 211.055C19.5865 213.846 17.0735 216.344 18.7599 220.622C24.9326 236.279 29.9111 246.758 33.7998 261.008C37.4573 274.41 24.9203 274.584 14.6623 285.375C7.64867 292.753 6.1727 306.994 14.6623 312.179C21.2955 316.23 28.9118 311.893 33.7998 307.706C37.0268 304.942 41.1355 305.946 45.7406 302.878C51.0551 299.337 57.1948 307.37 63.2416 307.706C67.2488 307.928 70.7113 309.833 75.6198 309.892C82.4427 309.974 87.0836 303.651 93.907 303.651C104.879 303.651 107.318 310.961 110.975 319.489C116.713 332.869 117.761 345.002 117.071 356.04C116.214 369.738 119.509 380.407 117.071 396.246C115.695 405.181 113.348 411.953 117.071 419.395C122.987 431.219 144.631 430.36 156.084 430.36C166.016 430.36 171.308 432.068 179.247 427.401C184.486 424.322 188.226 416.68 193.877 416.958C200.868 417.302 207.288 420.554 207.288 427.401C207.288 431.879 203.63 438.888 204.85 443.762C205.843 447.733 208.626 449.666 213.384 449.854C218.857 450.07 222.534 444.766 226.794 441.325C235.917 433.958 241.23 429.181 248.643 423.12C256.056 417.059 259.531 409.501 269.465 404.774C281.535 399.031 291.494 397.886 302.382 402.806C310.284 406.377 313.679 415.972 318.23 423.12C320.845 427.226 327.307 436.99 334.079 442.544C348.994 454.773 373.092 440.518 382.845 452.29C389.114 459.856 415.762 463.256 431.611 455.945C437.38 451.622 437.033 445.686 441.336 440.518C447.947 432.579 456.008 429.443 461.025 422.846C465.129 417.449 466.074 413.435 470.624 408.429C473.614 405.141 476.138 403.509 479.073 400.802C485.318 395.041 490.48 389.795 491.35 382.844C493.788 363.35 475.501 363.35 480.377 349.948C482.232 344.85 483.515 339.882 488.911 338.983C496.226 337.765 505.178 341.257 511.979 340.408C520.231 339.377 530.853 333.467 536.134 327.017C540.096 322.177 540.116 310.961 531.582 308.524C521.853 305.746 520.609 291.467 523.372 274.093C524.563 266.608 529.019 261.046 536.498 259.791C543.773 258.571 550.332 260.546 555.965 254.916C562.06 248.824 568.156 245.169 575.471 239.077C579.86 235.422 596.88 235.561 603.13 235.561C607.044 235.561 613.265 236.195 613.265 230.549C613.265 226.914 615.024 223.499 618.141 220.802C622.52 217.013 628.282 219.788 632.771 222.02C641.047 226.137 642.508 234.331 643.743 243.759C644.845 252.168 638.568 258.639 640.086 265.166C642.757 276.652 653.819 284.161 664.839 280.196C672.721 277.36 676.912 272.945 680.318 265.166C683.135 258.732 681.634 250.61 682.614 243.759C683.638 236.595 693.312 229.002 700.206 229.002C709.707 229.002 717.194 227.875 724.27 220.804C733.014 212.065 723.911 185.769 721.9 174.711C720.188 165.304 720.061 160.147 709.047 158.679C701.593 157.686 687.544 161.027 681.611 156.129C679.499 154.385 681.2 148.121 679.241 145.38C677.255 142.601 677.6 140.087 677.6 136.817C677.6 131.221 678.918 118.156 683.343 114.226C689.306 108.929 693.929 104.548 686.715 98.6495C682.992 95.6054 683.918 82.2579 679.241 81.4331C674.057 80.5189 666.859 72.9422 664.474 68.3158C662.006 63.5265 661.43 52.8012 663.654 47.9112C666.017 42.7168 672.678 41.0405 672.678 34.6118C672.678 26.8291 668.089 20.6458 662.834 15.118C656.352 8.29904 650.328 9.24375 641.504 7.28413C633.486 5.50338 626.683 2.72953 618.534 2.72953C609.266 2.72953 603.472 10.9278 594.835 10.9278C589.123 10.9278 583.809 7.81778 578.519 6.19102C576.161 5.46607 574.615 11.2762 572.959 12.9318C568.28 17.607 566.602 28.6966 564.755 35.1583C560.536 49.914 565.922 65.7536 562.659 80.4311C561.304 86.5209 554.416 84.7124 549.259 84.7124C547.744 84.7124 540.433 85.7665 539.871 83.8015C539.199 81.4509 540.273 78.1538 536.498 78.1538C532.682 78.1538 532.306 87.4872 531.485 90.3601C530.816 92.6989 519.849 90.8692 517.63 91.3621C503.637 94.4697 502.502 110.944 493.839 119.145C486.832 125.78 479.929 120.19 474.151 115.137C470.875 112.272 459.688 114.226 455.283 114.226C446.771 114.226 443.729 127.344 436.414 127.344C427.425 127.344 429.003 121.229 423.289 117.87C416.357 113.795 407.261 117.151 401.23 113.315C397.43 110.899 391.862 105.9 389.654 101.929C382.134 88.4012 361.116 102.018 356.384 88.3561C353.985 81.4306 351.161 81.4313 344.058 81.433L343.714 81.4331C335.323 81.4331 334.519 85.0655 329.038 90.5423C327.194 92.3853 313.732 104.191 313.36 94.9147C313.12 88.9123 313.601 82.881 313.36 76.8785C312.856 64.2866 290.902 59.556 287.2 72.5061C283.936 83.9222 276.725 97.6204 264.503 87.6273C253.941 78.9912 246.716 67.301 237.067 57.6581C231.944 52.5389 224.912 49.7013 219.839 44.6319C214.321 39.1168 215.581 33.3253 212.912 27.3244C210.223 21.2794 210.803 14.7919 205.984 9.28816C202.645 5.47447 191.281 -2.3447 187.025 5.09792C183.665 10.9732 179.427 16.0575 172.258 15.8468C165.98 15.6623 159.754 9.51526 153.846 9.28816C140.588 8.77858 120.643 6.02227 109.182 12.5675C106.267 14.2322 109.011 24.9381 110.276 27.3244C113 32.468 120.3 29.6917 124.677 31.879C129.141 34.1095 126.637 53.053 122.216 55.0164C118.812 56.5284 114.054 53.8571 110.64 55.5629C108.107 56.8287 110.405 64.1891 110.64 66.0704C111.76 75.0242 111.188 79.3872 104.879 81.909Z" stroke="white" stroke-width="3" stroke-linecap="round"/>
<mask id="path-2-outside-1_176_3" maskUnits="userSpaceOnUse" x="222" y="214" width="208" height="50" fill="black">
<rect fill="white" x="222" y="214" width="208" height="50"/>
<path d="M223.95 215.5H225.55C228.183 215.5 230.117 216.117 231.35 217.35C232.583 218.55 233.2 220.333 233.2 222.7C233.2 224.067 232.8 225.383 232 226.65C231.2 227.883 230.233 228.717 229.1 229.15C231.967 229.617 234.183 230.817 235.75 232.75C237.317 234.683 238.1 237.217 238.1 240.35C238.1 242.85 237.55 245.067 236.45 247C235.35 248.9 233.833 250.383 231.9 251.45C230 252.483 227.883 253 225.55 253H223.95V215.5ZM225.95 228.7C227.55 228.7 228.9 228.117 230 226.95C231.1 225.783 231.65 224.35 231.65 222.65C231.65 220.75 231.183 219.317 230.25 218.35C229.35 217.383 227.917 216.9 225.95 216.9H225.55V228.7H225.95ZM225.95 251.6C227.917 251.6 229.7 251.133 231.3 250.2C232.9 249.233 234.167 247.9 235.1 246.2C236.033 244.5 236.5 242.583 236.5 240.45C236.5 237.017 235.583 234.433 233.75 232.7C231.95 230.933 229.35 230.05 225.95 230.05H225.55V251.6H225.95ZM261.066 253L251.666 233.45L242.266 253H240.666L251.716 229.85L262.816 253H261.066ZM277.061 253.55C274.927 253.55 272.944 253.017 271.111 251.95C269.277 250.883 267.827 249.45 266.761 247.65C265.694 245.817 265.161 243.85 265.161 241.75C265.161 239.65 265.694 237.7 266.761 235.9C267.827 234.067 269.277 232.617 271.111 231.55C272.944 230.483 274.927 229.95 277.061 229.95C279.227 229.95 281.277 230.533 283.211 231.7C285.144 232.833 286.494 234.317 287.261 236.15V230.5H288.861V253H287.261V247.4C286.361 249.267 284.961 250.767 283.061 251.9C281.194 253 279.194 253.55 277.061 253.55ZM277.161 252.15C278.994 252.15 280.694 251.683 282.261 250.75C283.827 249.783 285.061 248.517 285.961 246.95C286.894 245.35 287.361 243.617 287.361 241.75C287.361 239.917 286.894 238.2 285.961 236.6C285.027 235 283.777 233.733 282.211 232.8C280.644 231.833 278.944 231.35 277.111 231.35C275.277 231.35 273.561 231.833 271.961 232.8C270.394 233.767 269.127 235.05 268.161 236.65C267.227 238.25 266.761 239.967 266.761 241.8C266.761 243.633 267.227 245.35 268.161 246.95C269.127 248.517 270.411 249.783 272.011 250.75C273.611 251.683 275.327 252.15 277.161 252.15ZM317.571 251.55V257.85H316.171V253H294.571V257.85H293.171V251.6H295.021L305.471 229.85L315.921 251.55H317.571ZM314.321 251.55L305.471 233.15L296.621 251.55H314.321ZM321.602 230.5H323.152V250.75L339.302 230.5H340.752V253H339.202V232.8L323.002 253H321.602V230.5ZM371.412 230.5V253H369.812V233.95L359.762 253.6L349.662 233.25V253H348.262V230.5H350.062L359.912 250.4L369.912 230.5H371.412ZM378.926 230.5H380.476V250.75L396.626 230.5H398.076V253H396.526V232.8L380.326 253H378.926V230.5ZM404.986 230.5H406.586V236C407.486 234.2 408.886 232.75 410.786 231.65C412.686 230.517 414.686 229.95 416.786 229.95C418.953 229.95 420.936 230.483 422.736 231.55C424.569 232.617 426.019 234.05 427.086 235.85C428.153 237.65 428.686 239.617 428.686 241.75C428.686 243.883 428.153 245.85 427.086 247.65C426.019 249.45 424.569 250.883 422.736 251.95C420.936 253.017 418.953 253.55 416.786 253.55C414.753 253.55 412.786 253 410.886 251.9C409.019 250.8 407.586 249.35 406.586 247.55V263H404.986V230.5ZM416.886 252.15C418.719 252.15 420.419 251.683 421.986 250.75C423.553 249.783 424.786 248.517 425.686 246.95C426.619 245.35 427.086 243.617 427.086 241.75C427.086 239.917 426.619 238.2 425.686 236.6C424.753 235 423.503 233.733 421.936 232.8C420.369 231.833 418.669 231.35 416.836 231.35C415.003 231.35 413.286 231.833 411.686 232.8C410.119 233.767 408.853 235.05 407.886 236.65C406.953 238.25 406.486 239.967 406.486 241.8C406.486 243.633 406.953 245.35 407.886 246.95C408.853 248.517 410.136 249.783 411.736 250.75C413.336 251.683 415.053 252.15 416.886 252.15Z"/>
</mask>
<path d="M223.95 215.5H225.55C228.183 215.5 230.117 216.117 231.35 217.35C232.583 218.55 233.2 220.333 233.2 222.7C233.2 224.067 232.8 225.383 232 226.65C231.2 227.883 230.233 228.717 229.1 229.15C231.967 229.617 234.183 230.817 235.75 232.75C237.317 234.683 238.1 237.217 238.1 240.35C238.1 242.85 237.55 245.067 236.45 247C235.35 248.9 233.833 250.383 231.9 251.45C230 252.483 227.883 253 225.55 253H223.95V215.5ZM225.95 228.7C227.55 228.7 228.9 228.117 230 226.95C231.1 225.783 231.65 224.35 231.65 222.65C231.65 220.75 231.183 219.317 230.25 218.35C229.35 217.383 227.917 216.9 225.95 216.9H225.55V228.7H225.95ZM225.95 251.6C227.917 251.6 229.7 251.133 231.3 250.2C232.9 249.233 234.167 247.9 235.1 246.2C236.033 244.5 236.5 242.583 236.5 240.45C236.5 237.017 235.583 234.433 233.75 232.7C231.95 230.933 229.35 230.05 225.95 230.05H225.55V251.6H225.95ZM261.066 253L251.666 233.45L242.266 253H240.666L251.716 229.85L262.816 253H261.066ZM277.061 253.55C274.927 253.55 272.944 253.017 271.111 251.95C269.277 250.883 267.827 249.45 266.761 247.65C265.694 245.817 265.161 243.85 265.161 241.75C265.161 239.65 265.694 237.7 266.761 235.9C267.827 234.067 269.277 232.617 271.111 231.55C272.944 230.483 274.927 229.95 277.061 229.95C279.227 229.95 281.277 230.533 283.211 231.7C285.144 232.833 286.494 234.317 287.261 236.15V230.5H288.861V253H287.261V247.4C286.361 249.267 284.961 250.767 283.061 251.9C281.194 253 279.194 253.55 277.061 253.55ZM277.161 252.15C278.994 252.15 280.694 251.683 282.261 250.75C283.827 249.783 285.061 248.517 285.961 246.95C286.894 245.35 287.361 243.617 287.361 241.75C287.361 239.917 286.894 238.2 285.961 236.6C285.027 235 283.777 233.733 282.211 232.8C280.644 231.833 278.944 231.35 277.111 231.35C275.277 231.35 273.561 231.833 271.961 232.8C270.394 233.767 269.127 235.05 268.161 236.65C267.227 238.25 266.761 239.967 266.761 241.8C266.761 243.633 267.227 245.35 268.161 246.95C269.127 248.517 270.411 249.783 272.011 250.75C273.611 251.683 275.327 252.15 277.161 252.15ZM317.571 251.55V257.85H316.171V253H294.571V257.85H293.171V251.6H295.021L305.471 229.85L315.921 251.55H317.571ZM314.321 251.55L305.471 233.15L296.621 251.55H314.321ZM321.602 230.5H323.152V250.75L339.302 230.5H340.752V253H339.202V232.8L323.002 253H321.602V230.5ZM371.412 230.5V253H369.812V233.95L359.762 253.6L349.662 233.25V253H348.262V230.5H350.062L359.912 250.4L369.912 230.5H371.412ZM378.926 230.5H380.476V250.75L396.626 230.5H398.076V253H396.526V232.8L380.326 253H378.926V230.5ZM404.986 230.5H406.586V236C407.486 234.2 408.886 232.75 410.786 231.65C412.686 230.517 414.686 229.95 416.786 229.95C418.953 229.95 420.936 230.483 422.736 231.55C424.569 232.617 426.019 234.05 427.086 235.85C428.153 237.65 428.686 239.617 428.686 241.75C428.686 243.883 428.153 245.85 427.086 247.65C426.019 249.45 424.569 250.883 422.736 251.95C420.936 253.017 418.953 253.55 416.786 253.55C414.753 253.55 412.786 253 410.886 251.9C409.019 250.8 407.586 249.35 406.586 247.55V263H404.986V230.5ZM416.886 252.15C418.719 252.15 420.419 251.683 421.986 250.75C423.553 249.783 424.786 248.517 425.686 246.95C426.619 245.35 427.086 243.617 427.086 241.75C427.086 239.917 426.619 238.2 425.686 236.6C424.753 235 423.503 233.733 421.936 232.8C420.369 231.833 418.669 231.35 416.836 231.35C415.003 231.35 413.286 231.833 411.686 232.8C410.119 233.767 408.853 235.05 407.886 236.65C406.953 238.25 406.486 239.967 406.486 241.8C406.486 243.633 406.953 245.35 407.886 246.95C408.853 248.517 410.136 249.783 411.736 250.75C413.336 251.683 415.053 252.15 416.886 252.15Z" fill="#F7F4EF"/>
<path d="M223.95 215.5V214.5H222.95V215.5H223.95ZM231.35 217.35L230.643 218.057L230.653 218.067L231.35 217.35ZM232 226.65L232.839 227.194L232.845 227.184L232 226.65ZM229.1 229.15L228.743 228.216L225.278 229.541L228.939 230.137L229.1 229.15ZM235.75 232.75L236.527 232.12L235.75 232.75ZM236.45 247L237.315 247.501L237.319 247.495L236.45 247ZM231.9 251.45L232.378 252.328L232.383 252.326L231.9 251.45ZM223.95 253H222.95V254H223.95V253ZM230 226.95L230.728 227.636L230 226.95ZM230.25 218.35L229.518 219.031L229.524 219.038L229.531 219.045L230.25 218.35ZM225.55 216.9V215.9H224.55V216.9H225.55ZM225.55 228.7H224.55V229.7H225.55V228.7ZM231.3 250.2L231.804 251.064L231.811 251.06L231.817 251.056L231.3 250.2ZM235.1 246.2L234.223 245.719L235.1 246.2ZM233.75 232.7L233.05 233.414L233.056 233.42L233.063 233.427L233.75 232.7ZM225.55 230.05V229.05H224.55V230.05H225.55ZM225.55 251.6H224.55V252.6H225.55V251.6ZM223.95 216.5H225.55V214.5H223.95V216.5ZM225.55 216.5C228.051 216.5 229.674 217.088 230.643 218.057L232.057 216.643C230.559 215.145 228.315 214.5 225.55 214.5V216.5ZM230.653 218.067C231.629 219.017 232.2 220.499 232.2 222.7H234.2C234.2 220.167 233.538 218.083 232.047 216.633L230.653 218.067ZM232.2 222.7C232.2 223.86 231.864 224.993 231.155 226.116L232.845 227.184C233.736 225.773 234.2 224.274 234.2 222.7H232.2ZM231.161 226.106C230.451 227.2 229.639 227.873 228.743 228.216L229.457 230.084C230.827 229.56 231.949 228.567 232.839 227.194L231.161 226.106ZM228.939 230.137C231.607 230.571 233.586 231.668 234.973 233.38L236.527 232.12C234.78 229.965 232.327 228.662 229.261 228.163L228.939 230.137ZM234.973 233.38C236.361 235.093 237.1 237.385 237.1 240.35H239.1C239.1 237.048 238.272 234.274 236.527 232.12L234.973 233.38ZM237.1 240.35C237.1 242.699 236.585 244.741 235.581 246.505L237.319 247.495C238.515 245.393 239.1 243.001 239.1 240.35H237.1ZM235.585 246.499C234.576 248.241 233.192 249.595 231.417 250.574L232.383 252.326C234.475 251.172 236.124 249.559 237.315 247.501L235.585 246.499ZM231.422 250.572C229.68 251.519 227.73 252 225.55 252V254C228.037 254 230.32 253.448 232.378 252.328L231.422 250.572ZM225.55 252H223.95V254H225.55V252ZM224.95 253V215.5H222.95V253H224.95ZM225.95 229.7C227.826 229.7 229.439 229.003 230.728 227.636L229.272 226.264C228.361 227.231 227.274 227.7 225.95 227.7V229.7ZM230.728 227.636C232.014 226.272 232.65 224.588 232.65 222.65H230.65C230.65 224.112 230.186 225.295 229.272 226.264L230.728 227.636ZM232.65 222.65C232.65 220.599 232.146 218.874 230.969 217.655L229.531 219.045C230.221 219.759 230.65 220.901 230.65 222.65H232.65ZM230.982 217.669C229.817 216.417 228.058 215.9 225.95 215.9V217.9C227.775 217.9 228.883 218.35 229.518 219.031L230.982 217.669ZM225.95 215.9H225.55V217.9H225.95V215.9ZM224.55 216.9V228.7H226.55V216.9H224.55ZM225.55 229.7H225.95V227.7H225.55V229.7ZM225.95 252.6C228.082 252.6 230.041 252.092 231.804 251.064L230.796 249.336C229.359 250.175 227.751 250.6 225.95 250.6V252.6ZM231.817 251.056C233.574 249.995 234.962 248.53 235.977 246.681L234.223 245.719C233.372 247.27 232.226 248.472 230.783 249.344L231.817 251.056ZM235.977 246.681C236.999 244.819 237.5 242.734 237.5 240.45H235.5C235.5 242.432 235.068 244.181 234.223 245.719L235.977 246.681ZM237.5 240.45C237.5 236.844 236.534 233.956 234.437 231.973L233.063 233.427C234.633 234.911 235.5 237.189 235.5 240.45H237.5ZM234.45 231.986C232.406 229.98 229.518 229.05 225.95 229.05V231.05C229.182 231.05 231.494 231.887 233.05 233.414L234.45 231.986ZM225.95 229.05H225.55V231.05H225.95V229.05ZM224.55 230.05V251.6H226.55V230.05H224.55ZM225.55 252.6H225.95V250.6H225.55V252.6ZM261.066 253L260.165 253.433L260.437 254H261.066V253ZM251.666 233.45L252.567 233.017L251.666 231.142L250.765 233.017L251.666 233.45ZM242.266 253V254H242.895L243.167 253.433L242.266 253ZM240.666 253L239.764 252.569L239.081 254H240.666V253ZM251.716 229.85L252.618 229.418L251.714 227.533L250.814 229.419L251.716 229.85ZM262.816 253V254H264.405L263.718 252.568L262.816 253ZM261.967 252.567L252.567 233.017L250.765 233.883L260.165 253.433L261.967 252.567ZM250.765 233.017L241.365 252.567L243.167 253.433L252.567 233.883L250.765 233.017ZM242.266 252H240.666V254H242.266V252ZM241.568 253.431L252.618 230.281L250.814 229.419L239.764 252.569L241.568 253.431ZM250.814 230.282L261.914 253.432L263.718 252.568L252.618 229.418L250.814 230.282ZM262.816 252H261.066V254H262.816V252ZM271.111 251.95L270.608 252.814L271.111 251.95ZM266.761 247.65L265.896 248.153L265.9 248.16L266.761 247.65ZM266.761 235.9L267.621 236.41L267.625 236.403L266.761 235.9ZM271.111 231.55L270.608 230.686L271.111 231.55ZM283.211 231.7L282.694 232.556L282.705 232.563L283.211 231.7ZM287.261 236.15L286.338 236.536L288.261 236.15H287.261ZM287.261 230.5V229.5H286.261V230.5H287.261ZM288.861 230.5H289.861V229.5H288.861V230.5ZM288.861 253V254H289.861V253H288.861ZM287.261 253H286.261V254H287.261V253ZM287.261 247.4H288.261L286.36 246.966L287.261 247.4ZM283.061 251.9L283.568 252.762L283.573 252.759L283.061 251.9ZM282.261 250.75L282.772 251.609L282.779 251.605L282.786 251.601L282.261 250.75ZM285.961 246.95L285.097 246.446L285.093 246.452L285.961 246.95ZM285.961 236.6L285.097 237.104L285.961 236.6ZM282.211 232.8L281.685 233.651L281.692 233.655L281.699 233.659L282.211 232.8ZM271.961 232.8L271.443 231.944L271.435 231.949L271.961 232.8ZM268.161 236.65L267.305 236.133L267.301 236.139L267.297 236.146L268.161 236.65ZM268.161 246.95L267.297 247.454L267.303 247.465L267.31 247.475L268.161 246.95ZM272.011 250.75L271.493 251.606L271.5 251.61L271.507 251.614L272.011 250.75ZM277.061 252.55C275.103 252.55 273.293 252.063 271.613 251.086L270.608 252.814C272.595 253.97 274.752 254.55 277.061 254.55V252.55ZM271.613 251.086C269.925 250.104 268.599 248.791 267.621 247.14L265.9 248.16C267.055 250.109 268.629 251.663 270.608 252.814L271.613 251.086ZM267.625 247.147C266.646 245.465 266.161 243.671 266.161 241.75H264.161C264.161 244.029 264.742 246.168 265.896 248.153L267.625 247.147ZM266.161 241.75C266.161 239.829 266.646 238.055 267.621 236.41L265.9 235.39C264.742 237.345 264.161 239.471 264.161 241.75H266.161ZM267.625 236.403C268.604 234.719 269.93 233.394 271.613 232.414L270.608 230.686C268.625 231.839 267.05 233.414 265.896 235.397L267.625 236.403ZM271.613 232.414C273.293 231.437 275.103 230.95 277.061 230.95V228.95C274.752 228.95 272.595 229.53 270.608 230.686L271.613 232.414ZM277.061 230.95C279.037 230.95 280.91 231.479 282.694 232.556L283.727 230.844C281.645 229.587 279.417 228.95 277.061 228.95V230.95ZM282.705 232.563C284.476 233.601 285.665 234.928 286.338 236.536L288.183 235.764C287.322 233.706 285.812 232.066 283.716 230.837L282.705 232.563ZM288.261 236.15V230.5H286.261V236.15H288.261ZM287.261 231.5H288.861V229.5H287.261V231.5ZM287.861 230.5V253H289.861V230.5H287.861ZM288.861 252H287.261V254H288.861V252ZM288.261 253V247.4H286.261V253H288.261ZM286.36 246.966C285.551 248.644 284.292 250.001 282.548 251.041L283.573 252.759C285.629 251.532 287.17 249.89 288.161 247.834L286.36 246.966ZM282.553 251.038C280.837 252.049 279.012 252.55 277.061 252.55V254.55C279.375 254.55 281.55 253.951 283.568 252.762L282.553 251.038ZM277.161 253.15C279.173 253.15 281.05 252.635 282.772 251.609L281.749 249.891C280.338 250.731 278.815 251.15 277.161 251.15V253.15ZM282.786 251.601C284.491 250.549 285.843 249.162 286.828 247.448L285.093 246.452C284.278 247.871 283.163 249.018 281.735 249.899L282.786 251.601ZM286.824 247.454C287.848 245.7 288.361 243.792 288.361 241.75H286.361C286.361 243.441 285.94 245 285.097 246.446L286.824 247.454ZM288.361 241.75C288.361 239.738 287.846 237.847 286.824 236.096L285.097 237.104C285.942 238.553 286.361 240.096 286.361 241.75H288.361ZM286.824 236.096C285.807 234.352 284.437 232.962 282.722 231.941L281.699 233.659C283.118 234.504 284.247 235.648 285.097 237.104L286.824 236.096ZM282.736 231.949C281.012 230.885 279.13 230.35 277.111 230.35V232.35C278.758 232.35 280.276 232.781 281.685 233.651L282.736 231.949ZM277.111 230.35C275.091 230.35 273.196 230.885 271.443 231.944L272.478 233.656C273.925 232.782 275.463 232.35 277.111 232.35V230.35ZM271.435 231.949C269.731 233 268.352 234.399 267.305 236.133L269.016 237.167C269.902 235.701 271.056 234.533 272.486 233.651L271.435 231.949ZM267.297 236.146C266.275 237.897 265.761 239.788 265.761 241.8H267.761C267.761 240.146 268.179 238.603 269.024 237.154L267.297 236.146ZM265.761 241.8C265.761 243.812 266.275 245.703 267.297 247.454L269.024 246.446C268.179 244.997 267.761 243.454 267.761 241.8H265.761ZM267.31 247.475C268.361 249.179 269.76 250.558 271.493 251.606L272.528 249.894C271.061 249.008 269.893 247.854 269.012 246.425L267.31 247.475ZM271.507 251.614C273.258 252.635 275.148 253.15 277.161 253.15V251.15C275.506 251.15 273.963 250.731 272.514 249.886L271.507 251.614ZM317.571 251.55H318.571V250.55H317.571V251.55ZM317.571 257.85V258.85H318.571V257.85H317.571ZM316.171 257.85H315.171V258.85H316.171V257.85ZM316.171 253H317.171V252H316.171V253ZM294.571 253V252H293.571V253H294.571ZM294.571 257.85V258.85H295.571V257.85H294.571ZM293.171 257.85H292.171V258.85H293.171V257.85ZM293.171 251.6V250.6H292.171V251.6H293.171ZM295.021 251.6V252.6H295.65L295.923 252.033L295.021 251.6ZM305.471 229.85L306.372 229.416L305.47 227.543L304.57 229.417L305.471 229.85ZM315.921 251.55L315.021 251.984L315.293 252.55H315.921V251.55ZM314.321 251.55V252.55H315.912L315.223 251.117L314.321 251.55ZM305.471 233.15L306.373 232.717L305.471 230.843L304.57 232.717L305.471 233.15ZM296.621 251.55L295.72 251.117L295.031 252.55H296.621V251.55ZM316.571 251.55V257.85H318.571V251.55H316.571ZM317.571 256.85H316.171V258.85H317.571V256.85ZM317.171 257.85V253H315.171V257.85H317.171ZM316.171 252H294.571V254H316.171V252ZM293.571 253V257.85H295.571V253H293.571ZM294.571 256.85H293.171V258.85H294.571V256.85ZM294.171 257.85V251.6H292.171V257.85H294.171ZM293.171 252.6H295.021V250.6H293.171V252.6ZM295.923 252.033L306.373 230.283L304.57 229.417L294.12 251.167L295.923 252.033ZM304.571 230.284L315.021 251.984L316.822 251.116L306.372 229.416L304.571 230.284ZM315.921 252.55H317.571V250.55H315.921V252.55ZM315.223 251.117L306.373 232.717L304.57 233.583L313.42 251.983L315.223 251.117ZM304.57 232.717L295.72 251.117L297.523 251.983L306.373 233.583L304.57 232.717ZM296.621 252.55H314.321V250.55H296.621V252.55ZM321.602 230.5V229.5H320.602V230.5H321.602ZM323.152 230.5H324.152V229.5H323.152V230.5ZM323.152 250.75H322.152V253.608L323.933 251.374L323.152 250.75ZM339.302 230.5V229.5H338.82L338.52 229.876L339.302 230.5ZM340.752 230.5H341.752V229.5H340.752V230.5ZM340.752 253V254H341.752V253H340.752ZM339.202 253H338.202V254H339.202V253ZM339.202 232.8H340.202V229.955L338.421 232.174L339.202 232.8ZM323.002 253V254H323.481L323.782 253.626L323.002 253ZM321.602 253H320.602V254H321.602V253ZM321.602 231.5H323.152V229.5H321.602V231.5ZM322.152 230.5V250.75H324.152V230.5H322.152ZM323.933 251.374L340.083 231.124L338.52 229.876L322.37 250.126L323.933 251.374ZM339.302 231.5H340.752V229.5H339.302V231.5ZM339.752 230.5V253H341.752V230.5H339.752ZM340.752 252H339.202V254H340.752V252ZM340.202 253V232.8H338.202V253H340.202ZM338.421 232.174L322.221 252.374L323.782 253.626L339.982 233.426L338.421 232.174ZM323.002 252H321.602V254H323.002V252ZM322.602 253V230.5H320.602V253H322.602ZM371.412 230.5H372.412V229.5H371.412V230.5ZM371.412 253V254H372.412V253H371.412ZM369.812 253H368.812V254H369.812V253ZM369.812 233.95H370.812L368.921 233.495L369.812 233.95ZM359.762 253.6L358.866 254.045L359.748 255.822L360.652 254.055L359.762 253.6ZM349.662 233.25L350.557 232.805L348.662 233.25H349.662ZM349.662 253V254H350.662V253H349.662ZM348.262 253H347.262V254H348.262V253ZM348.262 230.5V229.5H347.262V230.5H348.262ZM350.062 230.5L350.958 230.056L350.683 229.5H350.062V230.5ZM359.912 250.4L359.016 250.844L359.905 252.641L360.805 250.849L359.912 250.4ZM369.912 230.5V229.5H369.295L369.018 230.051L369.912 230.5ZM370.412 230.5V253H372.412V230.5H370.412ZM371.412 252H369.812V254H371.412V252ZM370.812 253V233.95H368.812V253H370.812ZM368.921 233.495L358.871 253.145L360.652 254.055L370.702 234.405L368.921 233.495ZM360.657 253.155L350.557 232.805L348.766 233.695L358.866 254.045L360.657 253.155ZM348.662 233.25V253H350.662V233.25H348.662ZM349.662 252H348.262V254H349.662V252ZM349.262 253V230.5H347.262V253H349.262ZM348.262 231.5H350.062V229.5H348.262V231.5ZM349.165 230.944L359.016 250.844L360.808 249.956L350.958 230.056L349.165 230.944ZM360.805 250.849L370.805 230.949L369.018 230.051L359.018 249.951L360.805 250.849ZM369.912 231.5H371.412V229.5H369.912V231.5ZM378.926 230.5V229.5H377.926V230.5H378.926ZM380.476 230.5H381.476V229.5H380.476V230.5ZM380.476 250.75H379.476V253.608L381.258 251.374L380.476 250.75ZM396.626 230.5V229.5H396.144L395.844 229.876L396.626 230.5ZM398.076 230.5H399.076V229.5H398.076V230.5ZM398.076 253V254H399.076V253H398.076ZM396.526 253H395.526V254H396.526V253ZM396.526 232.8H397.526V229.955L395.746 232.174L396.526 232.8ZM380.326 253V254H380.806L381.106 253.626L380.326 253ZM378.926 253H377.926V254H378.926V253ZM378.926 231.5H380.476V229.5H378.926V231.5ZM379.476 230.5V250.75H381.476V230.5H379.476ZM381.258 251.374L397.408 231.124L395.844 229.876L379.694 250.126L381.258 251.374ZM396.626 231.5H398.076V229.5H396.626V231.5ZM397.076 230.5V253H399.076V230.5H397.076ZM398.076 252H396.526V254H398.076V252ZM397.526 253V232.8H395.526V253H397.526ZM395.746 232.174L379.546 252.374L381.106 253.626L397.306 233.426L395.746 232.174ZM380.326 252H378.926V254H380.326V252ZM379.926 253V230.5H377.926V253H379.926ZM404.986 230.5V229.5H403.986V230.5H404.986ZM406.586 230.5H407.586V229.5H406.586V230.5ZM406.586 236H405.586L407.48 236.447L406.586 236ZM410.786 231.65L411.287 232.515L411.298 232.509L410.786 231.65ZM422.736 231.55L422.226 232.41L422.233 232.414L422.736 231.55ZM427.086 235.85L426.226 236.36L427.086 235.85ZM427.086 247.65L426.226 247.14L427.086 247.65ZM422.736 251.95L422.233 251.086L422.226 251.09L422.736 251.95ZM410.886 251.9L410.378 252.762L410.385 252.765L410.886 251.9ZM406.586 247.55L407.46 247.064L405.586 243.691V247.55H406.586ZM406.586 263V264H407.586V263H406.586ZM404.986 263H403.986V264H404.986V263ZM421.986 250.75L422.498 251.609L422.504 251.605L422.511 251.601L421.986 250.75ZM425.686 246.95L424.822 246.446L424.819 246.452L425.686 246.95ZM425.686 236.6L426.55 236.096L425.686 236.6ZM421.936 232.8L421.411 233.651L421.417 233.655L421.424 233.659L421.936 232.8ZM411.686 232.8L411.169 231.944L411.161 231.949L411.686 232.8ZM407.886 236.65L407.03 236.133L407.026 236.139L407.022 236.146L407.886 236.65ZM407.886 246.95L407.022 247.454L407.028 247.465L407.035 247.475L407.886 246.95ZM411.736 250.75L411.219 251.606L411.225 251.61L411.232 251.614L411.736 250.75ZM404.986 231.5H406.586V229.5H404.986V231.5ZM405.586 230.5V236H407.586V230.5H405.586ZM407.48 236.447C408.285 234.838 409.54 233.527 411.287 232.515L410.285 230.785C408.232 231.973 406.687 233.562 405.692 235.553L407.48 236.447ZM411.298 232.509C413.052 231.463 414.876 230.95 416.786 230.95V228.95C414.496 228.95 412.32 229.571 410.274 230.791L411.298 232.509ZM416.786 230.95C418.78 230.95 420.586 231.438 422.226 232.41L423.246 230.69C421.286 229.528 419.125 228.95 416.786 228.95V230.95ZM422.233 232.414C423.921 233.396 425.247 234.709 426.226 236.36L427.946 235.34C426.791 233.391 425.217 231.837 423.239 230.686L422.233 232.414ZM426.226 236.36C427.199 238.002 427.686 239.792 427.686 241.75H429.686C429.686 239.441 429.106 237.298 427.946 235.34L426.226 236.36ZM427.686 241.75C427.686 243.708 427.199 245.498 426.226 247.14L427.946 248.16C429.106 246.202 429.686 244.059 429.686 241.75H427.686ZM426.226 247.14C425.247 248.791 423.921 250.104 422.233 251.086L423.239 252.814C425.217 251.663 426.791 250.109 427.946 248.16L426.226 247.14ZM422.226 251.09C420.586 252.062 418.78 252.55 416.786 252.55V254.55C419.125 254.55 421.286 253.972 423.246 252.81L422.226 251.09ZM416.786 252.55C414.942 252.55 413.147 252.054 411.387 251.035L410.385 252.765C412.425 253.946 414.563 254.55 416.786 254.55V252.55ZM411.394 251.038C409.672 250.024 408.369 248.7 407.46 247.064L405.712 248.036C406.803 250 408.366 251.576 410.378 252.762L411.394 251.038ZM405.586 247.55V263H407.586V247.55H405.586ZM406.586 262H404.986V264H406.586V262ZM405.986 263V230.5H403.986V263H405.986ZM416.886 253.15C418.898 253.15 420.775 252.635 422.498 251.609L421.474 249.891C420.063 250.731 418.54 251.15 416.886 251.15V253.15ZM422.511 251.601C424.217 250.549 425.569 249.162 426.553 247.448L424.819 246.452C424.003 247.871 422.889 249.018 421.461 249.899L422.511 251.601ZM426.55 247.454C427.573 245.7 428.086 243.792 428.086 241.75H426.086C426.086 243.441 425.666 245 424.822 246.446L426.55 247.454ZM428.086 241.75C428.086 239.738 427.571 237.847 426.55 236.096L424.822 237.104C425.667 238.553 426.086 240.096 426.086 241.75H428.086ZM426.55 236.096C425.532 234.352 424.162 232.962 422.448 231.941L421.424 233.659C422.843 234.504 423.973 235.648 424.822 237.104L426.55 236.096ZM422.461 231.949C420.737 230.885 418.856 230.35 416.836 230.35V232.35C418.483 232.35 420.001 232.781 421.411 233.651L422.461 231.949ZM416.836 230.35C414.817 230.35 412.922 230.885 411.169 231.944L412.203 233.656C413.65 232.782 415.189 232.35 416.836 232.35V230.35ZM411.161 231.949C409.457 233 408.078 234.399 407.03 236.133L408.742 237.167C409.628 235.701 410.782 234.533 412.211 233.651L411.161 231.949ZM407.022 236.146C406.001 237.897 405.486 239.788 405.486 241.8H407.486C407.486 240.146 407.905 238.603 408.75 237.154L407.022 236.146ZM405.486 241.8C405.486 243.812 406.001 245.703 407.022 247.454L408.75 246.446C407.905 244.997 407.486 243.454 407.486 241.8H405.486ZM407.035 247.475C408.086 249.179 409.485 250.558 411.219 251.606L412.253 249.894C410.787 249.008 409.619 247.854 408.737 246.425L407.035 247.475ZM411.232 251.614C412.983 252.635 414.874 253.15 416.886 253.15V251.15C415.232 251.15 413.689 250.731 412.24 249.886L411.232 251.614Z" fill="#F7F4EF" mask="url(#path-2-outside-1_176_3)"/>
<g clip-path="url(#clip0_176_3)">
<path d="M201.5 238.792C205.78 238.792 209.25 235.322 209.25 231.042C209.25 226.761 205.78 223.292 201.5 223.292C197.22 223.292 193.75 226.761 193.75 231.042C193.75 235.322 197.22 238.792 201.5 238.792Z" stroke="#F8C7CC" stroke-width="3" stroke-linecap="round" stroke-linejoin="round"/>
<path d="M201.5 238.792V251.708" stroke="#F8C7CC" stroke-width="3" stroke-linecap="round" stroke-linejoin="round"/>
</g>
<defs>
<clipPath id="clip0_176_3">
<rect width="31" height="31" fill="white" transform="translate(186 222)"/>
</clipPath>
</defs>
</svg>
